<?xml version="1.0" encoding="utf-8"?><svg version="1.1" id="Layer_1" xmlns="http://www.w3.org/2000/svg" xmlns:xlink="http://www.w3.org/1999/xlink" x="0px" y="0px"	 viewBox="0 0 1190 842" style="enable-background:new 0 0 1190 842;" xml:space="preserve"><style type="text/css">	.st0{opacity:0.09;fill:#4F90CD;enable-background:new    ;}</style><g>	<path class="st0" d="M902.8,743.9h-45.4v-23.7h-23.7v-11.8H739v-23.7h-49.4v23.7h-94.8v11.8v25.7v9.8h-47.4v25.7h49.4v-23.7h94.8		v-47.4H737v47.4h96.8v-11.8h21.7v23.7h49.4v-23.7h47.4v-25.7h-49.4v23.7H902.8z M596.8,722.2h45.4v21.7h-45.4V722.2z M594.8,779.4		h-45.4v-21.7h45.4V779.4z M689.6,755.7h-92.8v-9.8h47.4v-25.7h-47.4v-9.8h92.8V755.7z M691.6,708.4v-21.7H737v21.7H691.6z		 M831.8,755.7H739v-45.4h92.8v9.8h-23.7v25.7h23.7V755.7z M831.8,722.2v21.7h-21.7v-21.7H831.8z M833.8,743.9v-21.7h21.7v21.7		H833.8z M902.8,767.6h-45.4v-21.7h45.4V767.6z M904.8,722.2h45.4v21.7h-45.4V722.2z"/>	<path class="st0" d="M1092.4,720.2v25.7h49.4v-25.7H1092.4z M1139.8,743.9h-45.4v-21.7h45.4V743.9z"/>	<path class="st0" d="M1092.4,648.5v25.7h49.4v-25.7H1092.4z M1139.8,672.2h-45.4v-21.7h45.4V672.2z"/>	<path class="st0" d="M1094.4,709.8v-25.7H1045v12.4h-71.1v49.4h96.8v-36.1L1094.4,709.8L1094.4,709.8z M1047,686.1h45.4v21.7h-21.7		v-11.3H1047V686.1z M1047,698.5h21.7v9.3H1047V698.5z M1068.7,743.9h-92.8v-45.4h69.1v11.3h23.7V743.9z"/>	<path class="st0" d="M689.6,793.3H739v-25.7h-49.4V793.3z M691.6,769.6H737v21.7h-45.4V769.6z"/>	<path class="st0" d="M1047,755.7h-49.4v25.7h23.7v11.8h49.4v-25.7H1047V755.7z M999.6,779.4v-21.7h45.4v9.8h-23.7v11.8h-21.7V779.4		z M1045,769.6v9.8h-21.7v-9.8H1045z M1068.7,769.6v21.7h-45.4v-9.8h23.7v-11.8h21.7L1068.7,769.6L1068.7,769.6z"/>	<path class="st0" d="M904.8,686.1h23.7v-25.7h-49.4v23.7h-23.7v25.7h49.4V686.1z M881.2,662.4h45.4v21.7h-21.7h-23.7V662.4z		 M902.8,707.8h-45.4v-21.7h21.7h23.7V707.8z"/>	<path class="st0" d="M1094.4,626.8h23.7v-25.7h-49.4v23.7H1045v25.7h49.4V626.8z M1070.7,603.1h45.4v21.7h-21.7h-23.7L1070.7,603.1		L1070.7,603.1z M1092.4,648.5H1047v-21.7h21.7h23.7L1092.4,648.5L1092.4,648.5z"/>	<path class="st0" d="M1023.3,648.5h-49.4v25.7h49.4V648.5z M1021.3,672.2h-45.4v-21.7h45.4V672.2z"/></g></svg>