<?xml version="1.0" encoding="utf-8"?><svg version="1.1" id="Layer_1" xmlns="http://www.w3.org/2000/svg" xmlns:xlink="http://www.w3.org/1999/xlink" x="0px" y="0px"	 viewBox="0 0 1190 842" style="enable-background:new 0 0 1190 842;" xml:space="preserve"><style type="text/css">	.st0{opacity:0.08;fill:#4F90CD;enable-background:new    ;}</style><g>			<rect x="1044.3" y="616.994" transform="matrix(0.7071 -0.7071 0.7071 0.7071 -144.3093 952.6944)" class="st0" width="67.099" height="67.099"/>	<polygon class="st0" points="569.5,728.4 562.5,721.6 542.9,741 562.5,760.6 565,758.1 599.8,793 647.1,745.5 599.8,698.1 	"/>			<rect x="695.099" y="736.281" transform="matrix(0.7071 -0.7071 0.7071 0.7071 -325.7796 728.2605)" class="st0" width="42.2" height="42.2"/>			<rect x="883.503" y="680.711" transform="matrix(0.7071 -0.7071 0.7071 0.7071 -231.303 845.206)" class="st0" width="42.2" height="42.2"/>			<rect x="773.69" y="582.867" transform="matrix(0.707 -0.7072 0.7072 0.707 -191.0927 731.3874)" class="st0" width="26.9" height="26.9"/>	<polygon class="st0" points="1060.5,550.4 1086.7,524.2 1092.9,530.4 1064.7,558.7 1048.5,542.5 1021.5,569.4 1048.5,596.3 		1071.3,573.7 1099.3,601.6 1137.9,562.8 1103.3,528.2 1116.1,515.4 1096.9,496.3 1090.5,502.7 1060.5,472.8 1021.7,511.6 	"/>			<rect x="864.184" y="743.775" transform="matrix(0.707 -0.7072 0.7072 0.707 -278.3739 842.5303)" class="st0" width="26.9" height="26.9"/>			<rect x="642.471" y="664.171" transform="matrix(0.7071 -0.7071 0.7071 0.7071 -291.3016 672.5766)" class="st0" width="47.5" height="47.5"/>			<rect x="966.887" y="707.884" transform="matrix(0.7071 -0.7071 0.7071 0.7071 -227.1922 914.7764)" class="st0" width="47.5" height="47.5"/>			<rect x="675.515" y="733.982" transform="matrix(0.7071 -0.7072 0.7072 0.7071 -323.576 698.5608)" class="st0" width="11.701" height="11.701"/>			<rect x="814.788" y="612.019" transform="matrix(0.707 -0.7072 0.7072 0.707 -196.5199 761.392)" class="st0" width="11.7" height="11.7"/>			<rect x="996.082" y="505.744" transform="matrix(0.7071 -0.7072 0.7072 0.7071 -68.2677 858.3915)" class="st0" width="11.701" height="11.701"/>			<rect x="943.596" y="519.717" transform="matrix(0.7071 -0.7071 0.7071 0.7071 -93.5459 825.2946)" class="st0" width="11.7" height="11.7"/>			<rect x="778.472" y="749.577" transform="matrix(0.7071 -0.7071 0.7071 0.7071 -307.9033 784.2086)" class="st0" width="28.4" height="28.4"/>	<polygon class="st0" points="925.5,560.6 874.6,611.2 925.5,662.1 937.7,649.7 963.9,675.6 993.7,645.9 967.5,619.9 970.1,617.3 		982.9,629.9 1016.5,596.3 982.9,562.8 955.2,590.5 	"/>			<rect x="1021.499" y="599.075" transform="matrix(0.7071 -0.7071 0.7071 0.7071 -129.4522 909.9236)" class="st0" width="24.3" height="24.3"/>			<rect x="1088.178" y="726.782" transform="matrix(0.7071 -0.7071 0.7071 0.7071 -202.0889 998.9771)" class="st0" width="33.3" height="33.3"/>			<rect x="731.384" y="706.18" transform="matrix(0.7071 -0.7071 0.7071 0.7071 -288.6068 732.4019)" class="st0" width="16.8" height="16.8"/>			<rect x="847.795" y="625.399" transform="matrix(0.7071 -0.7071 0.7071 0.7071 -197.39 791.0564)" class="st0" width="16.8" height="16.8"/>			<rect x="993.182" y="540.394" transform="matrix(0.7072 -0.707 0.707 0.7072 -94.7445 868.8082)" class="st0" width="16.8" height="16.8"/>			<rect x="1003.608" y="460.786" transform="matrix(0.7072 -0.707 0.707 0.7072 -37.3967 857.6699)" class="st0" width="26.4" height="26.4"/>			<rect x="651.061" y="749.082" transform="matrix(0.7071 -0.7071 0.7071 0.7071 -342.4688 688.1705)" class="st0" width="16.8" height="16.8"/>			<rect x="912.181" y="719.268" transform="matrix(0.7071 -0.7071 0.7071 0.7071 -249.2973 874.6779)" class="st0" width="38" height="38"/>			<rect x="1088.367" y="441.869" transform="matrix(0.7072 -0.7071 0.7071 0.7072 -1.5762 917.9349)" class="st0" width="38.002" height="38.002"/>	<polygon class="st0" points="870.7,723.7 854.5,707.5 843.2,719 827,702.8 803.2,726.3 827,750 845.8,731 854.5,739.7 	"/>	<polygon class="st0" points="785.5,723.1 788.7,726.3 801,714.1 788.7,701.8 780.1,710.5 773.7,704.1 758.2,719.5 773.7,735 	"/>	<polygon class="st0" points="795.1,701.4 826,670.6 839.6,684.1 858.6,664.9 839.6,645.9 822.5,663 795.1,635.7 768.2,662.6 		756.3,650.6 731.1,675.6 756.3,700.7 775.4,681.5 	"/></g></svg>