<?xml version="1.0" encoding="utf-8"?><svg version="1.1" id="Layer_1" xmlns="http://www.w3.org/2000/svg" xmlns:xlink="http://www.w3.org/1999/xlink" x="0px" y="0px"	 viewBox="0 0 1190 842" style="enable-background:new 0 0 1190 842;" xml:space="preserve"><style type="text/css">	.st0{opacity:0.08;fill:#6F429A;enable-background:new    ;}</style><g>	<polygon class="st0" points="901,685.8 950.9,650.9 896.1,624.5 	"/>	<polygon class="st0" points="1081.3,549.1 1059.4,571.4 1009.5,542.8 1009.5,555.5 975.2,552.4 990.3,578.4 1009.5,558.5 		1009.7,614.1 1027.5,603.9 1023.8,607.6 1102.5,627.4 	"/>	<polygon class="st0" points="1024.9,475.2 1098.6,555.9 1134,482.1 	"/>	<polygon class="st0" points="1139.7,674 1058.8,675 1060.2,652.5 963.6,698.9 1043.3,752.5 1057.6,792.3 	"/>	<polygon class="st0" points="943.3,586.1 1013.4,485.2 977.5,485.6 983.6,481.7 959.7,469.7 960.7,485.8 907.4,486.4 	"/>	<polygon class="st0" points="924.1,718.9 936.8,680.5 901.2,690.1 	"/>	<polygon class="st0" points="991.8,616.6 1000.1,591.6 977.3,598 	"/>	<polygon class="st0" points="1065.5,648.7 1050.4,627.4 1039.4,651.1 	"/>	<polygon class="st0" points="890.6,572.8 856.7,586.9 882.9,612.7 	"/>	<polygon class="st0" points="1073.7,469.7 1055.7,403.9 1023,437.4 1007.3,428.2 1000.6,476.4 1024.9,457.4 	"/>	<polygon class="st0" points="1019.8,540.8 1061.6,551.4 1050.2,509.7 	"/>	<polygon class="st0" points="854.5,662.1 892.9,632.3 861.2,614.1 	"/>	<polygon class="st0" points="771.9,665 773.7,694.2 737.2,647 682,741.4 787.2,711.8 774.6,695.4 801.3,682 	"/>	<polygon class="st0" points="786.6,649.9 803.2,640.5 787.8,629.9 	"/>	<polygon class="st0" points="821.4,657.9 820.1,675.2 839.9,667.5 	"/>	<polygon class="st0" points="876.3,718.1 892.9,708.7 877.5,698.1 	"/>	<polygon class="st0" points="890.8,502.2 878.4,517.9 897.4,519.5 	"/>	<polygon class="st0" points="873.5,693.6 873.9,673.4 828.5,682.6 	"/>	<polygon class="st0" points="813.4,572.4 803.2,590 847.3,604.1 	"/></g></svg>