<?xml version="1.0" encoding="utf-8"?><svg version="1.1" id="Layer_1" xmlns="http://www.w3.org/2000/svg" xmlns:xlink="http://www.w3.org/1999/xlink" x="0px" y="0px"	 viewBox="0 0 1190 842" style="enable-background:new 0 0 1190 842;" xml:space="preserve"><style type="text/css">	.st0{opacity:0.09;fill:#6F429A;}</style><path class="st0" d="M1091.733,608.896c4.141-0.268,8.338-0.446,12.607-0.509c28.296,4.288,57.318,12.002,85.289,23.167l0.742-1.857	c-23.983-9.573-48.744-16.616-73.173-21.152c21.985,0.83,45.83,4.715,72.49,13.469l0.623-1.9	c-32.216-10.578-60.345-14.123-86.026-13.738c-0.137-0.021-0.274-0.041-0.411-0.061c23.404-4.091,50.765-3.661,85.856,6.149	l0.539-1.926c-38.42-10.74-67.647-10.357-92.544-5.091c-0.829-0.11-1.656-0.213-2.484-0.317	c23.254-9.113,52.328-12.514,94.521-2.221l0.475-1.943c-44.854-10.94-75.047-6.599-99.147,3.668	c-1.097-0.125-2.193-0.248-3.286-0.362c22.691-14.202,52.986-21.542,101.985-10.919l0.424-1.955	c-51.356-11.13-82.438-2.805-105.683,12.548c-1.209-0.115-2.414-0.221-3.619-0.324c4.292-3.767,8.94-7.24,14.064-10.297	c23.84-14.223,54.86-17.343,94.834-9.532l0.383-1.963c-40.479-7.905-71.96-4.708-96.241,9.777	c-5.818,3.471-11.016,7.46-15.782,11.793c-1.33-0.102-2.657-0.198-3.982-0.285c4.421-5.11,9.324-9.843,14.912-14.016	c23.865-17.821,56.812-22.683,100.727-14.866l0.35-1.969c-44.485-7.919-77.94-2.938-102.272,15.232	c-6.141,4.586-11.478,9.808-16.237,15.461c-1.383-0.08-2.762-0.152-4.137-0.215c4.412-6.463,9.455-12.458,15.367-17.772	c23.945-21.523,58.925-28.165,106.942-20.299l0.323-1.975c-70.469-11.539-104.479,9.416-124.912,39.95	c-50.698-1.982-96.068,7.823-124.773,29.325c-13.319,9.977-22.543,22.173-27.465,36.084c-5.178,5.249-9.528,10.789-12.979,16.605	c-6.776,4.754-12.959,9.869-18.398,15.382c-8.017,3.363-15.92,6.912-23.707,10.737c-0.823,0.404-1.678,0.845-2.548,1.304	c-4.738,0.706-9.541,1.4-14.435,2.085c-5.256,0.735-10.388,1.958-15.389,3.577c-0.567-0.036-1.121-0.066-1.691-0.103	c-9.323-0.606-18.537,0.021-27.602,1.831c-10.386-1.261-20.54-1.269-30.425-0.052c-29.97-4.434-57.494,0.132-82.073,13.676	c-59.484,32.777-81.672,107.872-81.889,108.627l1.922,0.553c0.215-0.746,22.166-75.047,80.932-107.429	c22.287-12.279,47.056-17.053,73.92-14.309c-9.977,1.863-19.663,5-29.007,9.447c-18.972,9.027-36.584,23.354-52.349,42.584	c-26.795,32.686-39.138,68.751-39.259,69.111l1.895,0.639c0.121-0.357,12.367-36.121,38.946-68.524	c15.575-18.988,32.954-33.124,51.653-42.017c11.287-5.367,23.083-8.802,35.3-10.335c4.594,0.688,9.246,1.589,13.956,2.705	c-7.136,2.64-14.16,6.038-21.044,10.223c-16.494,10.03-32.234,24.477-46.782,42.939c-24.733,31.39-37.635,63.998-37.763,64.324	l1.863,0.729c0.126-0.323,12.938-32.694,37.501-63.854c14.397-18.264,29.956-32.544,46.242-42.443	c7.665-4.659,15.502-8.344,23.477-11.054c1.883,0.486,3.772,0.995,5.673,1.549c3.823,1.113,7.574,2.181,11.266,3.211	c-22.267,13.94-40.768,34.459-54.114,52.302c-22.502,30.087-35.616,59.227-35.746,59.518l1.826,0.815	c0.129-0.29,13.168-29.256,35.545-59.167c13.534-18.091,32.403-38.971,55.098-52.746c6.993,1.929,13.755,3.708,20.295,5.338	c-12.871,11.989-27.58,28.568-43.645,51.53c-20.016,28.609-32.827,53.935-32.954,54.188l1.787,0.898	c0.126-0.251,12.884-25.468,32.821-53.962c16.382-23.413,31.32-40.13,44.307-52.081c8.19,2.012,16.031,3.786,23.55,5.33	c-34.039,47.221-65.88,99.091-66.278,99.741l1.705,1.045c0.4-0.653,32.54-53.005,66.724-100.347	c9.45,1.899,18.383,3.423,26.858,4.586c-23.106,54.76-58.584,94.079-59.027,94.565l1.477,1.348	c0.447-0.489,36.348-40.268,59.6-95.633c9.838,1.294,19.045,2.085,27.714,2.398c-4.23,25.461-13.445,44.849-22.024,58.224	c-14.473,22.563-30.284,33.401-30.442,33.508l1.119,1.658c0.161-0.109,16.257-11.124,30.952-34.001	c8.745-13.614,18.143-33.369,22.413-59.322c4.266,0.118,8.404,0.121,12.416,0.003c30.227-0.883,54.772-8.374,79.588-24.293	c20.771-13.324,30.239-39.373,40.265-66.95c0.275-0.756,0.55-1.513,0.825-2.27c0.81-1.637,1.62-3.283,2.433-4.936	c1.669-3.394,3.352-6.804,5.069-10.205c2.859-4.233,5.77-8.471,8.802-12.638c3.199-3.25,6.471-6.45,9.877-9.539	c3.53-2.232,7.15-4.386,10.904-6.416C1083.788,611.037,1087.707,609.907,1091.733,608.896z M1001.34,706.779	c-25.229,14.379-49.089,21.933-77.368,24.492c-3.963,0.359-8.031,0.617-12.212,0.778c0.271-4.267,0.396-8.675,0.363-13.219	c33.617-3.84,61.818-12.519,90.754-27.012c16.517-8.273,27.802-22.284,38.615-37.877c-0.155,0.424-0.31,0.849-0.464,1.273	C1030.451,676.579,1019.813,696.252,1001.34,706.779z M825.82,719.764c5.421,0.34,10.695,0.618,15.837,0.836	c-2.347,1.665-4.787,3.493-7.326,5.522c-5.597-0.9-11.363-1.902-17.307-3.005C819.907,721.865,822.839,720.741,825.82,719.764z	 M844.954,720.739c6.642,0.251,13.052,0.392,19.268,0.428c-2.073,2.716-4.154,5.48-6.237,8.28	c-6.721-0.794-13.701-1.757-20.97-2.896C839.782,724.389,842.43,722.46,844.954,720.739z M871.677,711.572	c-1.964,2.481-3.943,5.02-5.931,7.606c-5.788-0.017-11.766-0.137-17.924-0.344c2.918-1.881,5.65-3.473,8.188-4.823	C861.321,713.218,866.54,712.407,871.677,711.572z M894.154,697.119c-0.866,2.419-1.605,4.872-2.191,7.367	c-0.126,0.535-0.26,1.067-0.389,1.601c-4.957,0.921-9.982,1.806-15.082,2.663c1.818-2.251,3.816-4.561,6.078-6.929	C886.403,700.213,890.265,698.648,894.154,697.119z M1005.037,624.995c2.876-0.693,5.75-1.394,8.623-2.094	c14.809-3.61,29.771-7.248,45.372-9.986c-1.13,2.06-2.214,4.15-3.26,6.261c-4.327,1.804-8.6,3.65-12.854,5.492	c-12.448,5.389-25.319,10.96-39,15.124c-31.25,9.512-64.422,21.011-91.288,36.801c0.576-2.55,1.296-5.046,2.146-7.491	C933.884,649.915,964.594,634.749,1005.037,624.995z M1075.638,610.419c-0.833,0.663-1.659,1.332-2.475,2.011	c-0.613,0.216-1.224,0.433-1.833,0.653c0.736-0.812,1.491-1.608,2.249-2.403C1074.264,610.59,1074.95,610.504,1075.638,610.419z	 M1044.334,646.238c-12.121,17.951-23.995,34.597-42.353,43.791c-28.65,14.35-56.59,22.962-89.888,26.789	c-0.072-4.111-0.276-8.333-0.625-12.667c31.728-6.826,61.259-15.719,91.954-29.035c17.141-7.436,29.744-19.708,42.495-33.052	C1045.381,643.455,1044.855,644.847,1044.334,646.238z M910.096,717.036c-6.4,0.695-12.988,1.225-19.831,1.579	c1.059-3.56,2.043-7.162,2.946-10.8c5.503-1.032,10.927-2.11,16.284-3.245C909.834,708.835,910.029,712.99,910.096,717.036z	 M911.215,701.138c-0.334-3.517-0.447-6.968-0.349-10.349c13.92-5.088,28.185-9.91,42.804-14.852	c16.242-5.49,33.038-11.168,50.292-17.525c17.292-6.372,31.777-16.637,45.786-26.564c0.124-0.088,0.248-0.176,0.372-0.263	c-0.778,1.845-1.537,3.698-2.278,5.556c-13.797,14.542-26.938,28.211-45.218,36.142c-30.472,13.218-59.81,22.063-91.325,28.857	C911.268,701.804,911.247,701.475,911.215,701.138z M1051.603,633.18c0.528-1.268,1.068-2.53,1.614-3.787	c0.485-0.342,0.97-0.684,1.455-1.025c-0.677,1.226-1.343,2.458-2.002,3.694C1052.314,632.434,1051.959,632.807,1051.603,633.18z	 M1054.793,625.838c0.777-1.71,1.576-3.405,2.397-5.086c0.835-0.347,1.673-0.69,2.512-1.032c-0.939,1.526-1.857,3.065-2.754,4.617	C1056.229,624.836,1055.51,625.336,1054.793,625.838z M1060.872,621.646c0.655-1.078,1.33-2.144,2.007-3.207	c0.614-0.244,1.227-0.488,1.844-0.729c-0.786,0.962-1.558,1.932-2.323,2.908C1061.889,620.96,1061.38,621.302,1060.872,621.646z	 M1058.572,625.647c-0.101,0.137-0.199,0.275-0.299,0.411c0.064-0.111,0.124-0.224,0.188-0.334	C1058.498,625.698,1058.534,625.672,1058.572,625.647z M1068.904,616.106c-0.326,0.291-0.65,0.582-0.973,0.875	c0.208-0.247,0.414-0.496,0.624-0.742C1068.671,616.196,1068.786,616.15,1068.904,616.106z M1067.374,614.545	c-0.865,0.327-1.731,0.654-2.589,0.988c0.906-1.355,1.836-2.693,2.787-4.015c0.95-0.143,1.906-0.276,2.861-0.411	C1069.394,612.239,1068.373,613.384,1067.374,614.545z M1061.525,616.821c-0.995,0.398-1.985,0.801-2.973,1.206	c0.954-1.872,1.941-3.721,2.964-5.545c1.084-0.183,2.175-0.355,3.266-0.528C1063.665,613.555,1062.581,615.178,1061.525,616.821z	 M1004.5,641.706c13.789-4.197,26.714-9.792,39.213-15.203c3.56-1.541,7.131-3.087,10.738-4.607	c-0.971,2.039-1.91,4.095-2.819,6.167c-1.016,0.718-2.029,1.436-3.042,2.153c-14.542,10.306-28.277,20.04-45.32,26.319	c-17.229,6.349-34.012,12.021-50.241,17.508c-14.363,4.855-28.382,9.597-42.075,14.587c0.184-3.242,0.569-6.416,1.153-9.517	C931.503,667.676,960.152,655.204,1004.5,641.706z M908.92,689.376c-3.758,1.38-7.494,2.779-11.203,4.208	c1.166-2.676,2.499-5.305,4.022-7.877c2.497-1.72,5.188-3.464,8.098-5.234C909.362,683.381,909.057,686.35,908.92,689.376z	 M908.848,691.535c-0.06,3.205,0.06,6.469,0.377,9.792c0.039,0.415,0.066,0.82,0.103,1.233c-5.135,1.09-10.33,2.128-15.598,3.122	c0.059-0.247,0.122-0.493,0.18-0.74c0.702-2.99,1.635-5.921,2.753-8.801C900.695,694.575,904.756,693.042,908.848,691.535z	 M891.052,708.219c-0.892,3.533-1.862,7.031-2.9,10.489c-6.4,0.296-13.017,0.448-19.876,0.462c2.125-2.753,4.24-5.451,6.335-8.077	C880.18,710.172,885.654,709.216,891.052,708.219z M866.732,721.176c7.189,0.007,14.105-0.139,20.795-0.436	c-1.149,3.714-2.373,7.382-3.666,10.995c-7.495-0.416-15.34-1.087-23.582-2.022C862.436,726.823,864.589,723.972,866.732,721.176z	 M889.648,720.646c7.07-0.352,13.877-0.886,20.479-1.598c0.027,4.493-0.101,8.851-0.373,13.069	c-7.545,0.23-15.459,0.144-23.812-0.27C887.25,728.165,888.488,724.43,889.648,720.646z M1078.785,610.531	c0.249-0.19,0.5-0.377,0.75-0.565c0.183-0.02,0.367-0.04,0.55-0.06c-0.323,0.172-0.646,0.343-0.967,0.516	C1079.007,610.458,1078.897,610.495,1078.785,610.531z M1092.054,606.731c-0.226,0.056-0.447,0.117-0.672,0.173	c-0.179,0.012-0.356,0.025-0.535,0.037c0.213-0.093,0.428-0.183,0.642-0.274C1091.678,606.69,1091.865,606.709,1092.054,606.731z	 M1087.494,606.227c-0.835,0.385-1.663,0.776-2.484,1.174c-0.74,0.066-1.484,0.127-2.221,0.199c0.775-0.544,1.558-1.081,2.351-1.609	C1085.923,606.067,1086.708,606.144,1087.494,606.227z M1081.96,605.695c-1.093,0.764-2.169,1.544-3.229,2.337	c-0.962,0.108-1.923,0.219-2.879,0.336c1-0.995,2.021-1.972,3.062-2.933C1079.927,605.516,1080.943,605.605,1081.96,605.695z	 M1076.18,605.228c-1.216,1.16-2.403,2.345-3.563,3.549c-1.137,0.151-2.266,0.314-3.395,0.476c1.09-1.447,2.219-2.865,3.375-4.262	C1073.79,605.064,1074.983,605.142,1076.18,605.228z M1070.11,604.845c-1.271,1.576-2.499,3.184-3.69,4.817	c-1.211,0.185-2.416,0.379-3.618,0.576c1.106-1.892,2.254-3.755,3.45-5.582C1067.534,604.711,1068.821,604.775,1070.11,604.845z	 M941.676,633.571c28.149-21.086,72.565-30.778,122.309-29c-1.282,1.995-2.512,4.025-3.691,6.089	c-16.227,2.779-31.749,6.554-47.107,10.297c-2.872,0.7-5.743,1.4-8.618,2.094c-38.67,9.326-68.564,23.606-88.09,41.647	C921.552,652.814,929.998,642.319,941.676,633.571z M911.624,672.417c-0.517,1.828-0.963,3.683-1.336,5.565	c-2.073,1.256-4.101,2.542-6.09,3.852C906.384,678.602,908.867,675.464,911.624,672.417z M897.976,688.383	c-1.06,2.042-2.021,4.114-2.868,6.217c-2.953,1.152-5.894,2.317-8.816,3.51C889.604,694.966,893.436,691.724,897.976,688.383z	 M878.208,703.677c-1.147,1.278-2.268,2.57-3.333,3.891c-0.447,0.554-0.896,1.116-1.344,1.676c-3.838,0.633-7.724,1.25-11.657,1.856	C867.261,708.511,872.706,706.044,878.208,703.677z M841.223,716.148c3.129-0.438,6.216-0.88,9.28-1.326	c-1.948,1.159-3.99,2.453-6.121,3.891c-4.202-0.163-8.488-0.364-12.877-0.61C834.697,717.279,837.933,716.609,841.223,716.148z	 M820.622,719.496c-2.374,0.908-4.717,1.902-7.026,2.978c-2.272-0.431-4.561-0.873-6.885-1.333c-1.363-0.27-2.719-0.503-4.074-0.732	C808.574,719.581,814.574,719.28,820.622,719.496z M773.499,720.74c5.454-0.323,10.985-0.277,16.59,0.147	c-2.299,0.603-4.588,1.287-6.865,2.047C779.955,722.101,776.714,721.371,773.499,720.74z M789.512,724.643	c-0.904-0.263-1.803-0.511-2.703-0.759c3.156-0.953,6.334-1.742,9.53-2.391c3.305,0.409,6.633,0.944,9.983,1.608	c1.429,0.283,2.846,0.56,4.255,0.832c-2.724,1.367-5.401,2.839-8.026,4.408C798.297,727.165,793.959,725.938,789.512,724.643z	 M805.232,729.081c2.818-1.628,5.693-3.138,8.621-4.523c6.327,1.197,12.459,2.283,18.399,3.255c-2.378,1.96-4.833,4.082-7.363,6.387	C818.572,732.641,812.027,730.938,805.232,729.081z M827.234,734.776c2.638-2.372,5.193-4.548,7.658-6.539	c7.532,1.201,14.767,2.222,21.719,3.06c-2.111,2.852-4.221,5.738-6.325,8.645C842.964,738.454,835.287,736.734,827.234,734.776z	 M852.444,740.372c2.149-2.963,4.304-5.902,6.458-8.806c8.478,0.981,16.546,1.692,24.245,2.132	c-1.382,3.774-2.832,7.49-4.341,11.137C870.554,743.711,861.784,742.229,852.444,740.372z M880.853,745.106	c1.524-3.7,2.988-7.468,4.382-11.296c8.551,0.438,16.651,0.541,24.367,0.312c-0.35,4.612-0.859,9.064-1.517,13.341	C899.661,747.153,890.616,746.379,880.853,745.106z M1000.702,723.532c-24.238,15.548-50.328,25.127-90.606,23.991	c0.659-4.32,1.17-8.813,1.517-13.469c4.294-0.161,8.471-0.423,12.54-0.79c28.578-2.587,52.688-10.219,78.178-24.746	c14.662-8.357,24.436-22.159,33.064-37.983C1026.979,692.763,1017.663,712.652,1000.702,723.532z"/></svg>